<?xml version="1.0" encoding="utf-8"?>
<!-- Generator: Adobe Illustrator 17.1.0, SVG Export Plug-In . SVG Version: 6.00 Build 0)  -->
<!DOCTYPE svg PUBLIC "-//W3C//DTD SVG 1.1//EN" "http://www.w3.org/Graphics/SVG/1.1/DTD/svg11.dtd">
<svg version="1.1" id="Layer_1" xmlns="http://www.w3.org/2000/svg" xmlns:xlink="http://www.w3.org/1999/xlink" x="0px" y="0px"
	 viewBox="29.7 846.3 1053 434.2" enable-background="new 29.7 846.3 1053 434.2" xml:space="preserve">
<g>
	<path fill="#FFFFFF" d="M69.9,1068.2c-4.8,0-9.3-1-13.3-3c-4.5-2.1-8.5-5.3-12.2-9.8l-14.6-18l16-18.9l14.6,18
		c1.2,1.5,2.7,2.7,4.3,3.6c1.6,0.9,3.4,1.2,5.4,1c3.7,0,7-1.6,9.6-5.1c2.4-3.1,3.6-6.5,3.7-10.6c0.1-3.9-0.9-7.4-3.1-10.6L46.6,980
		l-0.4-0.6c-1.6-2.2-3.1-4.6-4.2-7.1c-1.2-2.5-2.2-5.1-3.1-7.7c-1.5-5.6-2.2-11.1-1.8-16.6c0.3-5.9,1.5-11.4,3.7-16.2
		c2.1-5.1,5.1-9.7,8.8-13.8l0.4-0.4c3.6-3.7,7.8-6.5,12.7-8.5c4.6-1.6,9.3-2.1,13.9-1.6c2.4,0.3,4.8,0.7,7,1.6
		c2.2,0.7,4.3,1.9,6.6,3.3c4.5,2.8,8.1,6.5,11.1,11l10.9,16.2l-17.9,16.9l-10.6-16c-2.4-3.6-5.5-5.6-9.1-5.9
		c-3.6-0.4-6.9,0.9-9.9,3.9l-0.3,0.4c-2.8,3-4.5,6.5-4.6,11c-0.1,4.5,0.7,8.2,3,11.1l33.2,35.1l0.4,0.6c3,4,5.4,8.5,6.9,13.4
		c1.6,4.9,2.4,10.1,2.2,15.6c0,5.5-0.7,10.7-2.4,15.6s-4,9.4-7,13.2c-1.6,2.2-3.4,4.3-5.5,5.9c-1.9,1.8-4.2,3.1-6.3,4.2
		c-4.3,2.4-9,3.6-13.9,3.6h-0.4V1068.2z"/>
	<path fill="#FFFFFF" d="M226.2,1071.4c-9.3,0-18.1-2.2-26.6-6.5c-4-1.9-7.8-4.5-11.5-7.3c-3.6-2.8-7-6.2-10.2-10.1
		c-3.3-3.7-6-7.7-8.4-12s-4.5-8.9-6.1-13.7c-3.7-10.1-5.5-20.8-5.5-31.8s1.8-21.5,5.5-31.8c1.6-4.8,3.7-9.4,6.1-13.7s5.2-8.3,8.4-12
		c6.3-7.6,13.4-13.4,21.5-17.4c8.2-4.3,17-6.4,26.6-6.4c9.4,0,18.2,2.1,26.6,6.4c8.1,4,15.2,9.8,21.5,17.4
		c6.3,7.6,11.2,16.2,14.5,25.9c3.6,9.8,5.4,20.5,5.4,31.8s-1.8,22-5.4,31.8c-3.3,9.7-8.2,18.3-14.5,25.9c-3.1,3.9-6.4,7.3-10.2,10.1
		c-3.6,2.8-7.5,5.3-11.5,7.3C244.3,1069.2,235.4,1071.4,226.2,1071.4z M226.2,935.3c-6.3,0-12.1,1.5-17.6,4.3s-10.5,6.8-14.5,11.7
		c-4.2,4.9-7.3,10.7-9.7,17.2s-3.6,13.7-3.6,21.1c0,7.4,1.2,14.6,3.6,21.3c2.4,6.7,5.7,12.5,9.7,17.4c4.2,4.9,9,8.8,14.5,11.7
		c5.5,2.8,11.5,4.3,17.6,4.3c6.3,0,12.1-1.5,17.6-4.3c5.5-2.8,10.3-6.8,14.5-11.7c4.2-4.9,7.3-10.7,9.7-17.4
		c2.4-6.7,3.6-13.7,3.6-21.3c0-7.4-1.2-14.6-3.6-21.1s-5.7-12.3-9.7-17.2c-4.2-4.9-9-8.8-14.5-11.7
		C238.3,936.6,232.5,935.3,226.2,935.3z"/>
	<path fill="#FFFFFF" d="M399,1064.9c-8.5,0-16.7-1.9-24.3-5.6c-7.9-3.7-15.1-9.4-21.4-16.9c-6-7.1-10.8-15.8-14.2-25.6
		c-1.5-4.6-2.7-9.4-3.4-14.3c-0.7-4.8-1.2-9.8-1.2-14.9c0-9.8,1.5-19.5,4.6-29.3c3.4-9.8,8.2-18.3,14.2-25.4
		c6.3-7.6,13.4-13.2,21.4-16.9c8.1-3.9,16.1-5.8,24.3-5.8c8.4,0,16.4,1.9,24.2,5.8c7.9,3.7,15.1,9.4,21.4,16.9l-16,19
		c-4.2-4.9-8.7-8.6-13.9-11c-5.1-2.4-10.3-3.6-15.8-3.6c-5.4,0-10.6,1.2-15.8,3.6c-5.1,2.4-9.7,6.1-13.9,11c-4,4.8-7,10.3-9.1,16.3
		c-2.1,6.1-3.1,12.5-3.1,19.3c0,6.8,1,13.2,3.1,19.3c2.1,6.1,5.2,11.4,9.1,16.3c3.9,4.6,8.4,8.3,13.4,10.8
		c5.1,2.5,10.5,3.9,16.1,3.9c5.7,0,11.1-1.3,16.1-3.9c5.1-2.5,9.6-6.1,13.4-10.8l16,19c-6.3,7.6-13.4,13.2-21.4,16.9
		C415.8,1063.1,407.7,1064.9,399,1064.9z"/>
	<path fill="#FFFFFF" d="M515.5,910.5V1065H493V910.5H515.5z"/>
	<path fill="#FFFFFF" d="M601.9,910.8h23.9l50.2,155.1h-24.2l-11.1-34h-52.9l-10.9,34h-24L601.9,910.8z M596.3,1004.8H632L614,949.1
		L596.3,1004.8z"/>
	<path fill="#FFFFFF" d="M741.4,1065.3v0.1h-22.6V910.9h22.6v127.5h47.9v26.7h-47.9V1065.3z"/>
</g>
<g>
	<path fill="#FFFFFF" d="M219.1,1279.8v0.1h-18.5V1139h57.6v23.3h-39.3v31.1h39.3v24.7h-39.3v37.3h39.3v24.4H219.1z"/>
	<path fill="#FFFFFF" d="M394.9,1139.3v140.9h-18.5V1182l-23.1,43.8l-23.3-44.1v98.5h-18.5v-140.9h18.5l23.3,43.8l23.1-43.8H394.9
		L394.9,1139.3z"/>
	<path fill="#FFFFFF" d="M461.2,1138.9v140.9h-18.5v-140.9H461.2z"/>
	<path fill="#FFFFFF" d="M592.6,1139.6v140.9h-18.5v-0.6l-46.4-95.4v96h-18.5v-140.9h18.5h0.1l46.3,95.1v-95.1H592.6L592.6,1139.6z"
		/>
	<path fill="#FFFFFF" d="M662.3,1279.8v0.1h-18.5V1139h57.6v23.3h-39.3v31.1h39.3v24.7h-39.3v37.3h39.3v24.4H662.3z"/>
	<path fill="#FFFFFF" d="M835.9,1139.6v140.9h-18.5v-0.6l-46.4-95.4v96h-18.5v-140.9h18.5h0.1l46.3,95.1v-95.1H835.9L835.9,1139.6z"
		/>
	<path fill="#FFFFFF" d="M932.8,1279.8c-7,0-13.7-1.6-20-5.1c-6.4-3.4-12.2-8.6-17.5-15.5c-4.9-6.5-8.8-14.4-11.6-23.3
		c-1.3-4.3-2.2-8.6-2.8-12.9c-0.6-4.3-0.9-8.9-0.9-13.5c0-8.9,1.3-17.8,3.9-26.6c2.8-9.1,6.7-16.8,11.6-23.2
		c5.2-7,11.1-12,17.5-15.5c6.6-3.6,13.1-5.3,20-5.3c6.9,0,13.4,1.8,19.9,5.3c6.4,3.4,12.2,8.6,17.5,15.5l-13.1,17.4
		c-3.4-4.5-7.2-7.9-11.4-10.1c-4.2-2.2-8.5-3.3-12.8-3.3c-4.5,0-8.7,1-12.8,3.3c-4.2,2.2-7.9,5.5-11.4,10.1
		c-3.3,4.3-5.8,9.4-7.5,14.9c-1.8,5.5-2.5,11.4-2.5,17.7c0,6.2,0.9,12,2.5,17.7c1.8,5.5,4.2,10.6,7.5,14.9c3.1,4.3,6.9,7.6,11.1,9.8
		c4.2,2.4,8.7,3.4,13.3,3.4c4.6,0,9.1-1.2,13.1-3.4c4.2-2.4,7.8-5.6,11.1-9.8l13.1,17.4c-5.2,7-11.1,12.2-17.5,15.5
		C946.4,1278.1,939.8,1279.8,932.8,1279.8z"/>
	<path fill="#FFFFFF" d="M1032.3,1279.8v0.1h-18.5V1139h57.6v23.3h-39.3v31.1h39.3v24.7h-39.3v37.3h39.3v24.4H1032.3z"/>
</g>
<path d="M767.6,1001.6"/>
<g>
	
		<polyline fill="none" stroke="#FFFFFF" stroke-width="5" stroke-linecap="round" stroke-linejoin="round" stroke-miterlimit="10" points="
		854,848.8 854,1065 1080.2,1065 	"/>
	
		<polygon fill="none" stroke="#FFFFFF" stroke-width="5" stroke-linecap="round" stroke-linejoin="round" stroke-miterlimit="10" points="
		855,1065 1063.1,1065 1063.1,996.5 1063.1,899.5 1006.8,954.6 959,904.8 920,966.7 893.1,950 	"/>
	
		<line fill="none" stroke="#FFFFFF" stroke-width="5" stroke-linecap="round" stroke-linejoin="round" stroke-miterlimit="10" x1="982.3" y1="930.5" x2="857.7" y2="1065.3"/>
	
		<line fill="none" stroke="#FFFFFF" stroke-width="5" stroke-linecap="round" stroke-linejoin="round" stroke-miterlimit="10" x1="1006.6" y1="954.6" x2="904.4" y2="1065.3"/>
	
		<line fill="none" stroke="#FFFFFF" stroke-width="5" stroke-linecap="round" stroke-linejoin="round" stroke-miterlimit="10" x1="1062.9" y1="944.5" x2="951.2" y2="1065.3"/>
	
		<line fill="none" stroke="#FFFFFF" stroke-width="5" stroke-linecap="round" stroke-linejoin="round" stroke-miterlimit="10" x1="1062.9" y1="995" x2="997.9" y2="1065.3"/>
</g>
</svg>
